<?xml version="1.0" encoding="UTF-8" standalone="no"?>
<!-- Created with Inkscape (http://www.inkscape.org/) -->

<svg
   xmlns:dc="http://purl.org/dc/elements/1.1/"
   xmlns:cc="http://creativecommons.org/ns#"
   xmlns:rdf="http://www.w3.org/1999/02/22-rdf-syntax-ns#"
   xmlns:svg="http://www.w3.org/2000/svg"
   xmlns="http://www.w3.org/2000/svg"
   xmlns:sodipodi="http://sodipodi.sourceforge.net/DTD/sodipodi-0.dtd"
   xmlns:inkscape="http://www.inkscape.org/namespaces/inkscape"
   width="50.560707mm"
   height="12.25431mm"
   viewBox="0 0 50.560707 12.25431"
   version="1.1"
   id="svg8"
   inkscape:version="0.92.4 (5da689c313, 2019-01-14)"
   sodipodi:docname="drawing.svg">
  <defs
     id="defs2" />
  <sodipodi:namedview
     id="base"
     pagecolor="#ffffff"
     bordercolor="#666666"
     borderopacity="1.0"
     inkscape:pageopacity="0.0"
     inkscape:pageshadow="2"
     inkscape:zoom="2.8"
     inkscape:cx="25.866183"
     inkscape:cy="-67.473047"
     inkscape:document-units="mm"
     inkscape:current-layer="layer1"
     showgrid="false"
     inkscape:window-width="1920"
     inkscape:window-height="1001"
     inkscape:window-x="-9"
     inkscape:window-y="-9"
     inkscape:window-maximized="1"
     fit-margin-top="0"
     fit-margin-left="0"
     fit-margin-right="0"
     fit-margin-bottom="0" />
  <metadata
     id="metadata5">
    <rdf:RDF>
      <cc:Work
         rdf:about="">
        <dc:format>image/svg+xml</dc:format>
        <dc:type
           rdf:resource="http://purl.org/dc/dcmitype/StillImage" />
        <dc:title></dc:title>
      </cc:Work>
    </rdf:RDF>
  </metadata>
  <g
     inkscape:label="Layer 1"
     inkscape:groupmode="layer"
     id="layer1"
     transform="translate(-2.523514,-22.50975)">
    <path
       inkscape:connector-curvature="0"
       id="rect4573-9"
       d="m 4.8340124,22.50975 h 8.3969126 c 1.280016,0 2.310499,0.76921 2.310499,1.72468 v 8.80495 c 0,0.95547 -1.030483,1.72468 -2.310499,1.72468 H 4.8340124 c -1.2800151,0 -2.3104984,-0.76921 -2.3104984,-1.72468 v -8.80495 c 0,-0.95547 1.0304833,-1.72468 2.3104984,-1.72468 z"
       style="opacity:0.79900004;fill:#ff6600;fill-opacity:1;stroke-width:0;stroke-miterlimit:4;stroke-dasharray:none" />
    <path
       d="m 14.60984,23.790431 h -1.09253 v 2.891462 c -0.43246,-0.247839 -0.887679,-0.396541 -1.365661,-0.413072 -0.978725,-0.04954 -2.048492,-0.06612 -3.2093045,-0.06612 h -0.022753 c -1.2518553,0 -2.2988633,0.01648 -3.1865426,0.06612 -0.6828306,0.03306 -1.2518553,0.247849 -1.7070766,0.627868 -0.4096986,0.346977 -0.66007,0.77656 -0.7283533,1.288769 -0.022753,0.09913 -0.022753,0.594816 -0.022753,1.503556 v 0.06612 c 0,0.611337 0.022753,1.140058 0.045519,1.586172 0.045519,0.446114 0.2958926,0.842655 0.7738746,1.189631 0.4779807,0.346977 1.0242447,0.528731 1.6387933,0.561773 0.8421566,0.04954 1.9119266,0.06612 3.2093045,0.06612 h 0.022766 c 1.1608126,0 2.2305806,-0.01648 3.1865446,-0.06612 0.477982,-0.01648 0.9332,-0.148701 1.365661,-0.39654 v 0.462625 h 1.092529 z m -1.115292,7.236915 c 0,0.710475 -0.773874,1.305291 -1.752598,1.305291 -2.0484916,0.01658 -2.9816935,0.01658 -2.8223675,0.01658 l -2.7996046,-0.01658 c -0.9787246,0 -1.7525993,-0.594816 -1.7525993,-1.305291 v -2.709708 c 0,-0.710474 0.7738747,-1.321811 1.7525993,-1.321811 H 11.74195 c 0.978724,0 1.752598,0.611337 1.752598,1.321811 z"
       style="font-style:normal;font-variant:normal;font-weight:normal;font-stretch:normal;font-size:16.8413887px;line-height:1.25;font-family:HURTMOLD_;-inkscape-font-specification:'HURTMOLD_, Normal';font-variant-ligatures:normal;font-variant-caps:normal;font-variant-numeric:normal;font-feature-settings:normal;text-align:start;letter-spacing:0px;word-spacing:0px;writing-mode:lr-tb;text-anchor:start;fill:#000000;fill-opacity:1;stroke:none;stroke-width:0.48481473"
       id="path828"
       inkscape:connector-curvature="0" />
    <path
       d="m 27.571177,29.672492 c 0,-0.644379 -0.02275,-1.189631 -0.06828,-1.635745 -0.02275,-0.446105 -0.273132,-0.842655 -0.751113,-1.189631 -0.477983,-0.346977 -1.024247,-0.545242 -1.638794,-0.578295 -0.842158,-0.04954 -1.911927,-0.06612 -3.209305,-0.06612 h -0.04552 c -1.229095,0 -2.276103,0.01648 -3.163782,0.06612 -0.682831,0.03306 -1.251856,0.247849 -1.707077,0.627868 -0.409699,0.346977 -0.66007,0.77656 -0.728353,1.288769 -0.02275,0.09913 -0.02275,0.594816 -0.02275,1.503556 v 0.08261 c 0,0.611337 0.02275,1.123536 0.04552,1.569651 0.04552,0.446114 0.295892,0.842654 0.773874,1.189631 0.477981,0.346977 1.024245,0.52873 1.638794,0.561773 0.842158,0.04954 1.911926,0.06612 3.209304,0.06612 h 0.02275 c 1.297378,0 2.344386,-0.01648 3.186544,-0.06612 0.614547,-0.03306 1.13805,-0.214796 1.616032,-0.561773 0.477981,-0.346977 0.751114,-0.726996 0.773875,-1.17311 0.02275,-0.214797 0.02275,-0.330455 0.02275,-0.346977 h -1.069769 v 0.01648 c 0,0.710475 -0.773876,1.305291 -1.752599,1.305291 -2.071254,0.01658 -3.004456,0.01658 -2.822368,0.01658 l -2.799605,-0.01658 c -0.978724,0 -1.752599,-0.594816 -1.752599,-1.305291 v -0.958313 h 10.219699 v -0.396541 z m -10.242463,-0.39654 v -0.958314 c 0,-0.710474 0.773875,-1.30529 1.7526,-1.30529 1.57051,-0.01648 2.503712,-0.01648 2.799604,-0.01648 l 2.82237,0.01648 c 0.978721,0 1.752597,0.594816 1.752597,1.30529 v 0.958314 z"
       style="font-style:normal;font-variant:normal;font-weight:normal;font-stretch:normal;font-size:16.8413887px;line-height:1.25;font-family:HURTMOLD_;-inkscape-font-specification:'HURTMOLD_, Normal';font-variant-ligatures:normal;font-variant-caps:normal;font-variant-numeric:normal;font-feature-settings:normal;text-align:start;letter-spacing:0px;word-spacing:0px;writing-mode:lr-tb;text-anchor:start;fill:#000000;fill-opacity:1;stroke:none;stroke-width:0.48481473"
       id="path830"
       inkscape:connector-curvature="0" />
    <path
       d="m 39.212373,31.010825 v 0.01648 c 0,0.710475 -0.773875,1.30529 -1.7526,1.30529 -2.071252,0.01658 -3.027216,0.01658 -2.822366,0.01658 L 31.8378,32.332595 c -0.978725,0 -1.775359,-0.594815 -1.775359,-1.30529 v -2.709708 c 0,-0.710475 0.796634,-1.30529 1.775359,-1.30529 1.570511,-0.01648 2.503713,-0.01648 2.799607,-0.01648 l 2.822366,0.01648 c 0.842157,0 1.616033,0.495678 1.729839,1.107015 h 1.069767 v -0.09914 c 0,-0.446114 -0.250371,-0.826133 -0.751114,-1.17311 -0.47798,-0.346972 -1.024246,-0.545238 -1.638793,-0.57829 -0.819397,-0.04954 -1.889165,-0.06613 -3.209305,-0.06613 h -0.06828 c -1.206334,0 -2.253341,0.01648 -3.141023,0.06613 -0.682829,0.03306 -1.251855,0.247849 -1.707076,0.627868 -0.409698,0.346977 -0.660069,0.77656 -0.728352,1.288769 -0.02277,0.09913 -0.02277,0.594816 -0.02277,1.503555 v 0.06612 c 0,0.611337 0.02277,1.140057 0.04552,1.586172 0.04552,0.446114 0.295894,0.842654 0.773876,1.189631 0.477982,0.346977 1.024246,0.52873 1.638792,0.561773 0.84216,0.04954 1.911927,0.06612 3.209306,0.06612 h 0.02275 c 1.297379,0 2.367146,-0.01648 3.186544,-0.06612 0.591786,-0.03306 1.138052,-0.214796 1.616032,-0.561773 0.477982,-0.346977 0.751114,-0.743517 0.773875,-1.17311 0.02275,-0.214797 0.02275,-0.330455 0.02275,-0.346977 z"
       style="font-style:normal;font-variant:normal;font-weight:normal;font-stretch:normal;font-size:16.8413887px;line-height:1.25;font-family:HURTMOLD_;-inkscape-font-specification:'HURTMOLD_, Normal';font-variant-ligatures:normal;font-variant-caps:normal;font-variant-numeric:normal;font-feature-settings:normal;text-align:start;letter-spacing:0px;word-spacing:0px;writing-mode:lr-tb;text-anchor:start;fill:#000000;fill-opacity:1;stroke:none;stroke-width:0.48481473"
       id="path832"
       inkscape:connector-curvature="0" />
    <path
       d="m 53.084144,29.655971 c 0,-0.64438 -0.0227,-1.17311 -0.06824,-1.619224 -0.04555,-0.446105 -0.295897,-0.842655 -0.773879,-1.189631 -0.477983,-0.346977 -1.024243,-0.545242 -1.638795,-0.578295 -0.842155,-0.04954 -1.889162,-0.06612 -3.18654,-0.06612 h -0.06827 c -1.206335,0 -2.253343,0.01648 -3.141023,0.06612 -0.68283,0.03306 -1.251855,0.247849 -1.707076,0.627868 -0.409699,0.346977 -0.660069,0.77656 -0.728353,1.288769 -0.02275,0.09913 -0.02275,0.594816 -0.02275,1.503556 v 0.08261 c 0,0.611337 0.02275,1.123536 0.04552,1.569651 0.04552,0.446114 0.295892,0.842654 0.773874,1.189631 0.477981,0.346977 1.024246,0.52873 1.638793,0.561773 0.842158,0.04954 1.911927,0.06612 3.209305,0.06612 1.251857,0 2.298863,-0.01648 3.186537,-0.06612 0.68283,-0.03306 1.251862,-0.231318 1.684327,-0.611337 0.40969,-0.346977 0.660068,-0.776569 0.751106,-1.288769 0.0227,-0.181754 0.04554,-0.677432 0.04554,-1.503565 z m -1.115279,1.371375 c 0,0.710475 -0.796638,1.305291 -1.775363,1.305291 -2.071256,0.01658 -3.004458,0.01658 -2.799609,0.01658 l -2.799605,-0.01658 c -0.978725,0 -1.775361,-0.594816 -1.775361,-1.305291 v -2.709708 c 0,-0.710474 0.796636,-1.30529 1.775361,-1.30529 1.570509,-0.01648 2.503711,-0.01648 2.799605,-0.01648 l 2.799609,0.01648 c 0.978725,0 1.775363,0.594816 1.775363,1.30529 z"
       style="font-style:normal;font-variant:normal;font-weight:normal;font-stretch:normal;font-size:16.8413887px;line-height:1.25;font-family:HURTMOLD_;-inkscape-font-specification:'HURTMOLD_, Normal';font-variant-ligatures:normal;font-variant-caps:normal;font-variant-numeric:normal;font-feature-settings:normal;text-align:start;letter-spacing:0px;word-spacing:0px;writing-mode:lr-tb;text-anchor:start;fill:#000000;fill-opacity:1;stroke:none;stroke-width:0.48481473"
       id="path834"
       inkscape:connector-curvature="0" />
  </g>
</svg>
