<?xml version="1.0" encoding="UTF-8" standalone="no"?>
<!-- Created with Inkscape (http://www.inkscape.org/) -->

<svg
   xmlns:dc="http://purl.org/dc/elements/1.1/"
   xmlns:cc="http://creativecommons.org/ns#"
   xmlns:rdf="http://www.w3.org/1999/02/22-rdf-syntax-ns#"
   xmlns:svg="http://www.w3.org/2000/svg"
   xmlns="http://www.w3.org/2000/svg"
   xmlns:sodipodi="http://sodipodi.sourceforge.net/DTD/sodipodi-0.dtd"
   xmlns:inkscape="http://www.inkscape.org/namespaces/inkscape"
   width="38.132618mm"
   height="12.254308mm"
   viewBox="0 0 38.132618 12.254308"
   version="1.1"
   id="svg8"
   inkscape:version="0.92.4 (5da689c313, 2019-01-14)"
   sodipodi:docname="drawing.svg">
  <defs
     id="defs2" />
  <sodipodi:namedview
     id="base"
     pagecolor="#ffffff"
     bordercolor="#666666"
     borderopacity="1.0"
     inkscape:pageopacity="0.0"
     inkscape:pageshadow="2"
     inkscape:zoom="0.98994949"
     inkscape:cx="-137.93836"
     inkscape:cy="-67.473055"
     inkscape:document-units="mm"
     inkscape:current-layer="layer1"
     showgrid="false"
     inkscape:window-width="1920"
     inkscape:window-height="1001"
     inkscape:window-x="-9"
     inkscape:window-y="-9"
     inkscape:window-maximized="1"
     fit-margin-top="0"
     fit-margin-left="0"
     fit-margin-right="0"
     fit-margin-bottom="0" />
  <metadata
     id="metadata5">
    <rdf:RDF>
      <cc:Work
         rdf:about="">
        <dc:format>image/svg+xml</dc:format>
        <dc:type
           rdf:resource="http://purl.org/dc/dcmitype/StillImage" />
        <dc:title></dc:title>
      </cc:Work>
    </rdf:RDF>
  </metadata>
  <g
     inkscape:label="Layer 1"
     inkscape:groupmode="layer"
     id="layer1"
     transform="translate(-14.951547,-22.50975)">
    <g
       transform="translate(-51.429503,-101.85418)"
       id="g901">
      <path
         style="opacity:0.79900004;fill:#ff6600;fill-opacity:1;stroke-width:0;stroke-miterlimit:4;stroke-dasharray:none"
         d="m 68.10573,124.36393 h 6.267906 c 0.955473,0 1.72468,0.76921 1.72468,1.72468 v 8.80495 c 0,0.95547 -0.769207,1.72468 -1.72468,1.72468 H 68.10573 c -0.955472,0 -1.72468,-0.76921 -1.72468,-1.72468 v -8.80495 c 0,-0.95547 0.769208,-1.72468 1.72468,-1.72468 z"
         id="rect4573-9" />
      <g
         aria-label="deco"
         transform="scale(1.0192906,0.98107449)"
         style="font-style:normal;font-variant:normal;font-weight:normal;font-stretch:normal;font-size:16.8413887px;line-height:1.25;font-family:HURTMOLD_;-inkscape-font-specification:'HURTMOLD_, Normal';font-variant-ligatures:normal;font-variant-caps:normal;font-variant-numeric:normal;font-feature-settings:normal;text-align:start;letter-spacing:0px;word-spacing:0px;writing-mode:lr-tb;text-anchor:start;fill:#000000;fill-opacity:1;stroke:none;stroke-width:0.42103466"
         id="text866">
        <path
           d="m 74.067696,128.06837 h -0.808387 v 2.94724 c -0.319987,-0.25262 -0.656814,-0.40419 -1.010483,-0.42104 -0.72418,-0.0505 -1.515725,-0.0674 -2.374636,-0.0674 h -0.01684 c -0.926276,0 -1.70098,0.0168 -2.357794,0.0674 -0.505242,0.0337 -0.926276,0.25263 -1.263104,0.63998 -0.303145,0.35367 -0.4884,0.79154 -0.538925,1.31363 -0.01684,0.10104 -0.01684,0.60629 -0.01684,1.53256 v 0.0674 c 0,0.62313 0.01684,1.16205 0.03368,1.61677 0.03368,0.45472 0.218938,0.85891 0.572607,1.21258 0.353669,0.35367 0.757862,0.53893 1.21258,0.57261 0.623131,0.0505 1.414677,0.0674 2.374636,0.0674 h 0.01684 c 0.858911,0 1.650456,-0.0168 2.357795,-0.0674 0.353669,-0.0168 0.690496,-0.15157 1.010483,-0.40419 v 0.47155 h 0.808387 z m -0.825229,7.37652 c 0,0.72418 -0.572607,1.33047 -1.296786,1.33047 -1.515725,0.0169 -2.206222,0.0169 -2.088333,0.0169 l -2.07149,-0.0169 c -0.72418,0 -1.296787,-0.60629 -1.296787,-1.33047 v -2.76198 c 0,-0.72418 0.572607,-1.34731 1.296787,-1.34731 h 4.159823 c 0.724179,0 1.296786,0.62313 1.296786,1.34731 z"
           style="font-style:normal;font-variant:normal;font-weight:normal;font-stretch:normal;font-size:16.8413887px;font-family:HURTMOLD_;-inkscape-font-specification:'HURTMOLD_, Normal';font-variant-ligatures:normal;font-variant-caps:normal;font-variant-numeric:normal;font-feature-settings:normal;text-align:start;writing-mode:lr-tb;text-anchor:start;stroke-width:0.42103466"
           id="path828" />
        <path
           d="m 83.658077,134.0639 c 0,-0.65681 -0.01684,-1.21258 -0.05053,-1.6673 -0.01684,-0.45471 -0.202096,-0.85891 -0.555765,-1.21258 -0.35367,-0.35367 -0.757863,-0.55576 -1.21258,-0.58945 -0.623132,-0.0505 -1.414677,-0.0674 -2.374636,-0.0674 h -0.03368 c -0.909435,0 -1.684139,0.0168 -2.340953,0.0674 -0.505242,0.0337 -0.926276,0.25263 -1.263104,0.63998 -0.303145,0.35367 -0.4884,0.79154 -0.538925,1.31363 -0.01684,0.10104 -0.01684,0.60629 -0.01684,1.53256 v 0.0842 c 0,0.62313 0.01684,1.14521 0.03368,1.59993 0.03368,0.45472 0.218938,0.85891 0.572607,1.21258 0.353669,0.35367 0.757862,0.53893 1.21258,0.57261 0.623131,0.0505 1.414677,0.0674 2.374636,0.0674 h 0.01684 c 0.959959,0 1.734663,-0.0168 2.357795,-0.0674 0.454717,-0.0337 0.842069,-0.21894 1.195738,-0.57261 0.353669,-0.35367 0.555766,-0.74102 0.572607,-1.19574 0.01684,-0.21894 0.01684,-0.33683 0.01684,-0.35367 h -0.791545 v 0.0168 c 0,0.72418 -0.572608,1.33047 -1.296787,1.33047 -1.532567,0.0169 -2.223064,0.0169 -2.088333,0.0169 l -2.07149,-0.0169 c -0.72418,0 -1.296787,-0.60629 -1.296787,-1.33047 v -0.9768 h 7.561783 v -0.40419 z m -7.578625,-0.40419 v -0.9768 c 0,-0.72418 0.572607,-1.33047 1.296787,-1.33047 1.162055,-0.0168 1.852552,-0.0168 2.07149,-0.0168 l 2.088333,0.0168 c 0.724179,0 1.296787,0.60629 1.296787,1.33047 v 0.9768 z"
           style="font-style:normal;font-variant:normal;font-weight:normal;font-stretch:normal;font-size:16.8413887px;font-family:HURTMOLD_;-inkscape-font-specification:'HURTMOLD_, Normal';font-variant-ligatures:normal;font-variant-caps:normal;font-variant-numeric:normal;font-feature-settings:normal;text-align:start;writing-mode:lr-tb;text-anchor:start;stroke-width:0.42103466"
           id="path830" />
        <path
           d="m 92.271657,135.42805 v 0.0168 c 0,0.72418 -0.572607,1.33047 -1.296787,1.33047 -1.532566,0.0169 -2.239905,0.0169 -2.088332,0.0169 l -2.071491,-0.0169 c -0.72418,0 -1.313628,-0.60629 -1.313628,-1.33047 v -2.76198 c 0,-0.72418 0.589448,-1.33047 1.313628,-1.33047 1.162056,-0.0168 1.852553,-0.0168 2.071491,-0.0168 l 2.088332,0.0168 c 0.623131,0 1.195739,0.50524 1.279946,1.12837 h 0.791545 v -0.10105 c 0,-0.45472 -0.185255,-0.84207 -0.555766,-1.19574 -0.353669,-0.35367 -0.757862,-0.55576 -1.21258,-0.58945 -0.60629,-0.0505 -1.397835,-0.0674 -2.374636,-0.0674 h -0.05052 c -0.892593,0 -1.667297,0.0168 -2.324112,0.0674 -0.505241,0.0337 -0.926276,0.25263 -1.263104,0.63998 -0.303145,0.35367 -0.4884,0.79154 -0.538924,1.31363 -0.01684,0.10104 -0.01684,0.60629 -0.01684,1.53256 v 0.0674 c 0,0.62313 0.01684,1.16205 0.03368,1.61677 0.03368,0.45472 0.218938,0.85891 0.572608,1.21258 0.353669,0.35367 0.757862,0.53893 1.212579,0.57261 0.623132,0.0505 1.414677,0.0674 2.374636,0.0674 h 0.01684 c 0.959959,0 1.751504,-0.0168 2.357794,-0.0674 0.437876,-0.0337 0.84207,-0.21894 1.195739,-0.57261 0.353669,-0.35367 0.555766,-0.75786 0.572607,-1.19574 0.01684,-0.21894 0.01684,-0.33683 0.01684,-0.35367 z"
           style="font-style:normal;font-variant:normal;font-weight:normal;font-stretch:normal;font-size:16.8413887px;font-family:HURTMOLD_;-inkscape-font-specification:'HURTMOLD_, Normal';font-variant-ligatures:normal;font-variant-caps:normal;font-variant-numeric:normal;font-feature-settings:normal;text-align:start;writing-mode:lr-tb;text-anchor:start;stroke-width:0.42103466"
           id="path832" />
        <path
           d="m 102.53569,134.04706 c 0,-0.65681 -0.0168,-1.19574 -0.0505,-1.65046 -0.0337,-0.45471 -0.21894,-0.85891 -0.57261,-1.21258 -0.35367,-0.35367 -0.75786,-0.55576 -1.21258,-0.58945 -0.62313,-0.0505 -1.397833,-0.0674 -2.357792,-0.0674 h -0.05052 c -0.892594,0 -1.667298,0.0168 -2.324112,0.0674 -0.505242,0.0337 -0.926276,0.25263 -1.263104,0.63998 -0.303145,0.35367 -0.4884,0.79154 -0.538925,1.31363 -0.01684,0.10104 -0.01684,0.60629 -0.01684,1.53256 v 0.0842 c 0,0.62313 0.01684,1.14521 0.03368,1.59993 0.03368,0.45472 0.218938,0.85891 0.572607,1.21258 0.353669,0.35367 0.757863,0.53893 1.21258,0.57261 0.623131,0.0505 1.414677,0.0674 2.374636,0.0674 0.926276,0 1.700982,-0.0168 2.357792,-0.0674 0.50524,-0.0337 0.92628,-0.23578 1.24627,-0.62313 0.30314,-0.35367 0.4884,-0.79155 0.55576,-1.31363 0.0168,-0.18526 0.0337,-0.6905 0.0337,-1.53257 z m -0.82522,1.39783 c 0,0.72418 -0.58945,1.33047 -1.31363,1.33047 -1.532569,0.0169 -2.223066,0.0169 -2.071494,0.0169 l -2.07149,-0.0169 c -0.72418,0 -1.313629,-0.60629 -1.313629,-1.33047 v -2.76198 c 0,-0.72418 0.589449,-1.33047 1.313629,-1.33047 1.162055,-0.0168 1.852552,-0.0168 2.07149,-0.0168 l 2.071494,0.0168 c 0.72418,0 1.31363,0.60629 1.31363,1.33047 z"
           style="font-style:normal;font-variant:normal;font-weight:normal;font-stretch:normal;font-size:16.8413887px;font-family:HURTMOLD_;-inkscape-font-specification:'HURTMOLD_, Normal';font-variant-ligatures:normal;font-variant-caps:normal;font-variant-numeric:normal;font-feature-settings:normal;text-align:start;writing-mode:lr-tb;text-anchor:start;stroke-width:0.42103466"
           id="path834" />
      </g>
    </g>
  </g>
</svg>
