<?xml version="1.0" encoding="UTF-8" standalone="no"?>
<!-- Created with Inkscape (http://www.inkscape.org/) -->

<svg
   xmlns:dc="http://purl.org/dc/elements/1.1/"
   xmlns:cc="http://creativecommons.org/ns#"
   xmlns:rdf="http://www.w3.org/1999/02/22-rdf-syntax-ns#"
   xmlns:svg="http://www.w3.org/2000/svg"
   xmlns="http://www.w3.org/2000/svg"
   xmlns:sodipodi="http://sodipodi.sourceforge.net/DTD/sodipodi-0.dtd"
   xmlns:inkscape="http://www.inkscape.org/namespaces/inkscape"
   width="38.132618mm"
   height="12.254308mm"
   viewBox="0 0 38.132618 12.254308"
   version="1.1"
   id="svg8"
   inkscape:version="0.92.4 (5da689c313, 2019-01-14)"
   sodipodi:docname="drawing.svg">
  <defs
     id="defs2" />
  <sodipodi:namedview
     id="base"
     pagecolor="#ffffff"
     bordercolor="#666666"
     borderopacity="1.0"
     inkscape:pageopacity="0.0"
     inkscape:pageshadow="2"
     inkscape:zoom="1.979899"
     inkscape:cx="-137.93836"
     inkscape:cy="-67.473055"
     inkscape:document-units="mm"
     inkscape:current-layer="layer1"
     showgrid="false"
     inkscape:window-width="1920"
     inkscape:window-height="1001"
     inkscape:window-x="-9"
     inkscape:window-y="-9"
     inkscape:window-maximized="1"
     fit-margin-top="0"
     fit-margin-left="0"
     fit-margin-right="0"
     fit-margin-bottom="0" />
  <metadata
     id="metadata5">
    <rdf:RDF>
      <cc:Work
         rdf:about="">
        <dc:format>image/svg+xml</dc:format>
        <dc:type
           rdf:resource="http://purl.org/dc/dcmitype/StillImage" />
        <dc:title></dc:title>
      </cc:Work>
    </rdf:RDF>
  </metadata>
  <g
     inkscape:label="Layer 1"
     inkscape:groupmode="layer"
     id="layer1"
     transform="translate(-14.951547,-22.50975)">
    <path
       inkscape:connector-curvature="0"
       id="rect4573-9"
       d="m 16.676227,22.50975 h 6.267906 c 0.955473,0 1.72468,0.76921 1.72468,1.72468 v 8.80495 c 0,0.95547 -0.769207,1.72468 -1.72468,1.72468 h -6.267906 c -0.955472,0 -1.72468,-0.76921 -1.72468,-1.72468 v -8.80495 c 0,-0.95547 0.769208,-1.72468 1.72468,-1.72468 z"
       style="opacity:0.79900004;fill:#ff6600;fill-opacity:1;stroke-width:0;stroke-miterlimit:4;stroke-dasharray:none" />
    <path
       d="m 24.067003,23.790431 h -0.823981 v 2.891462 c -0.32616,-0.247839 -0.669484,-0.396541 -1.029976,-0.413072 -0.73815,-0.04954 -1.544964,-0.06612 -2.420444,-0.06612 h -0.01716 c -0.944144,0 -1.733793,0.01648 -2.403277,0.06612 -0.514988,0.03306 -0.944144,0.247849 -1.28747,0.627868 -0.308993,0.346977 -0.497822,0.77656 -0.549321,1.288769 -0.01716,0.09913 -0.01716,0.594816 -0.01716,1.503556 v 0.06612 c 0,0.611337 0.01716,1.140058 0.03433,1.586172 0.03433,0.446114 0.223161,0.842655 0.583653,1.189631 0.360491,0.346977 0.772481,0.528731 1.235971,0.561773 0.635151,0.04954 1.441967,0.06612 2.420444,0.06612 h 0.01717 c 0.87548,0 1.682294,-0.01648 2.403278,-0.06612 0.360492,-0.01648 0.703816,-0.148701 1.029976,-0.39654 v 0.462625 h 0.823981 z m -0.841148,7.236915 c 0,0.710475 -0.583653,1.305291 -1.321802,1.305291 -1.544964,0.01658 -2.248781,0.01658 -2.128618,0.01658 l -2.11145,-0.01658 c -0.73815,0 -1.321803,-0.594816 -1.321803,-1.305291 v -2.709708 c 0,-0.710474 0.583653,-1.321811 1.321803,-1.321811 h 4.240068 c 0.738149,0 1.321802,0.611337 1.321802,1.321811 z"
       style="font-style:normal;font-variant:normal;font-weight:normal;font-stretch:normal;font-size:16.8413887px;line-height:1.25;font-family:HURTMOLD_;-inkscape-font-specification:'HURTMOLD_, Normal';font-variant-ligatures:normal;font-variant-caps:normal;font-variant-numeric:normal;font-feature-settings:normal;text-align:start;letter-spacing:0px;word-spacing:0px;writing-mode:lr-tb;text-anchor:start;fill:#000000;fill-opacity:1;stroke:none;stroke-width:0.42103466"
       id="path828"
       inkscape:connector-curvature="0" />
    <path
       d="m 33.842389,29.672492 c 0,-0.644379 -0.01716,-1.189631 -0.0515,-1.635745 -0.01716,-0.446105 -0.205995,-0.842655 -0.566486,-1.189631 -0.360493,-0.346977 -0.772483,-0.545242 -1.235972,-0.578295 -0.635152,-0.04954 -1.441967,-0.06612 -2.420444,-0.06612 h -0.03433 c -0.926978,0 -1.716627,0.01648 -2.386111,0.06612 -0.514988,0.03306 -0.944144,0.247849 -1.28747,0.627868 -0.308993,0.346977 -0.497822,0.77656 -0.549321,1.288769 -0.01716,0.09913 -0.01716,0.594816 -0.01716,1.503556 v 0.08261 c 0,0.611337 0.01716,1.123536 0.03433,1.569651 0.03433,0.446114 0.223161,0.842654 0.583653,1.189631 0.360491,0.346977 0.772481,0.52873 1.235971,0.561773 0.635152,0.04954 1.441967,0.06612 2.420444,0.06612 h 0.01716 c 0.978477,0 1.768126,-0.01648 2.403278,-0.06612 0.463489,-0.03306 0.858313,-0.214796 1.218805,-0.561773 0.360491,-0.346977 0.566487,-0.726996 0.583653,-1.17311 0.01716,-0.214797 0.01716,-0.330455 0.01716,-0.346977 h -0.806815 v 0.01648 c 0,0.710475 -0.583654,1.305291 -1.321803,1.305291 -1.562131,0.01658 -2.265948,0.01658 -2.128618,0.01658 l -2.11145,-0.01658 c -0.73815,0 -1.321803,-0.594816 -1.321803,-1.305291 v -0.958313 h 7.707654 v -0.396541 z m -7.724822,-0.39654 v -0.958314 c 0,-0.710474 0.583653,-1.30529 1.321803,-1.30529 1.184472,-0.01648 1.888289,-0.01648 2.11145,-0.01648 l 2.128619,0.01648 c 0.738148,0 1.321802,0.594816 1.321802,1.30529 v 0.958314 z"
       style="font-style:normal;font-variant:normal;font-weight:normal;font-stretch:normal;font-size:16.8413887px;line-height:1.25;font-family:HURTMOLD_;-inkscape-font-specification:'HURTMOLD_, Normal';font-variant-ligatures:normal;font-variant-caps:normal;font-variant-numeric:normal;font-feature-settings:normal;text-align:start;letter-spacing:0px;word-spacing:0px;writing-mode:lr-tb;text-anchor:start;fill:#000000;fill-opacity:1;stroke:none;stroke-width:0.42103466"
       id="path830"
       inkscape:connector-curvature="0" />
    <path
       d="m 42.62213,31.010825 v 0.01648 c 0,0.710475 -0.583653,1.30529 -1.321803,1.30529 -1.56213,0.01658 -2.283114,0.01658 -2.128617,0.01658 l -2.111452,-0.01658 c -0.73815,0 -1.338968,-0.594815 -1.338968,-1.30529 v -2.709708 c 0,-0.710475 0.600818,-1.30529 1.338968,-1.30529 1.184473,-0.01648 1.88829,-0.01648 2.111452,-0.01648 l 2.128617,0.01648 c 0.635151,0 1.218805,0.495678 1.304637,1.107015 h 0.806814 v -0.09914 c 0,-0.446114 -0.188829,-0.826133 -0.566487,-1.17311 C 42.4848,26.5001 42.072809,26.301834 41.60932,26.268782 c -0.617986,-0.04954 -1.4248,-0.06613 -2.420444,-0.06613 h -0.0515 c -0.909812,0 -1.69946,0.01648 -2.368946,0.06613 -0.514987,0.03306 -0.944144,0.247849 -1.28747,0.627868 -0.308992,0.346977 -0.497821,0.77656 -0.54932,1.288769 -0.01717,0.09913 -0.01717,0.594816 -0.01717,1.503555 v 0.06612 c 0,0.611337 0.01717,1.140057 0.03433,1.586172 0.03433,0.446114 0.223162,0.842654 0.583654,1.189631 0.360492,0.346977 0.772482,0.52873 1.23597,0.561773 0.635153,0.04954 1.441967,0.06612 2.420445,0.06612 h 0.01716 c 0.978478,0 1.785292,-0.01648 2.403278,-0.06612 0.446323,-0.03306 0.858314,-0.214796 1.218805,-0.561773 0.360492,-0.346977 0.566487,-0.743517 0.583653,-1.17311 0.01716,-0.214797 0.01716,-0.330455 0.01716,-0.346977 z"
       style="font-style:normal;font-variant:normal;font-weight:normal;font-stretch:normal;font-size:16.8413887px;line-height:1.25;font-family:HURTMOLD_;-inkscape-font-specification:'HURTMOLD_, Normal';font-variant-ligatures:normal;font-variant-caps:normal;font-variant-numeric:normal;font-feature-settings:normal;text-align:start;letter-spacing:0px;word-spacing:0px;writing-mode:lr-tb;text-anchor:start;fill:#000000;fill-opacity:1;stroke:none;stroke-width:0.42103466"
       id="path832"
       inkscape:connector-curvature="0" />
    <path
       d="m 53.084162,29.655971 c 0,-0.64438 -0.01712,-1.17311 -0.05147,-1.619224 -0.03435,-0.446105 -0.223164,-0.842655 -0.583656,-1.189631 -0.360493,-0.346977 -0.77248,-0.545242 -1.235972,-0.578295 -0.63515,-0.04954 -1.424798,-0.06612 -2.403275,-0.06612 h -0.05149 c -0.909813,0 -1.699462,0.01648 -2.368946,0.06612 -0.514988,0.03306 -0.944144,0.247849 -1.28747,0.627868 -0.308993,0.346977 -0.497821,0.77656 -0.549321,1.288769 -0.01716,0.09913 -0.01716,0.594816 -0.01716,1.503556 v 0.08261 c 0,0.611337 0.01716,1.123536 0.03433,1.569651 0.03433,0.446114 0.223161,0.842654 0.583653,1.189631 0.360491,0.346977 0.772482,0.52873 1.235971,0.561773 0.635152,0.04954 1.441967,0.06612 2.420444,0.06612 0.944145,0 1.733793,-0.01648 2.403273,-0.06612 0.514987,-0.03306 0.944149,-0.231318 1.270312,-0.611337 0.308987,-0.346977 0.497821,-0.776569 0.566481,-1.288769 0.01712,-0.181754 0.03435,-0.677432 0.03435,-1.503565 z m -0.841139,1.371375 c 0,0.710475 -0.600821,1.305291 -1.338971,1.305291 -1.562133,0.01658 -2.26595,0.01658 -2.111454,0.01658 l -2.11145,-0.01658 c -0.73815,0 -1.33897,-0.594816 -1.33897,-1.305291 v -2.709708 c 0,-0.710474 0.60082,-1.30529 1.33897,-1.30529 1.184471,-0.01648 1.888288,-0.01648 2.11145,-0.01648 l 2.111454,0.01648 c 0.73815,0 1.338971,0.594816 1.338971,1.30529 z"
       style="font-style:normal;font-variant:normal;font-weight:normal;font-stretch:normal;font-size:16.8413887px;line-height:1.25;font-family:HURTMOLD_;-inkscape-font-specification:'HURTMOLD_, Normal';font-variant-ligatures:normal;font-variant-caps:normal;font-variant-numeric:normal;font-feature-settings:normal;text-align:start;letter-spacing:0px;word-spacing:0px;writing-mode:lr-tb;text-anchor:start;fill:#000000;fill-opacity:1;stroke:none;stroke-width:0.42103466"
       id="path834"
       inkscape:connector-curvature="0" />
  </g>
</svg>
